<svg width="282" height="376" viewBox="0 0 282 376" fill="none" xmlns="http://www.w3.org/2000/svg">
<path d="M206.876 360.276H197.492V366.309H206.876V360.276Z" fill="#E49D75"/>
<path d="M253.165 349.127L246.314 354.456L251.217 360.301L258.068 354.972L253.165 349.127Z" fill="#E49D75"/>
<path d="M213.12 113.925H212.69C210.759 113.925 209.193 115.433 209.193 117.293V119.024C209.193 120.885 210.759 122.393 212.69 122.393H213.12C215.051 122.393 216.617 120.885 216.617 119.024V117.293C216.617 115.433 215.051 113.925 213.12 113.925Z" fill="#E49D75"/>
<path d="M216.022 241.224C217.297 244.04 227.072 300.541 228.509 305.886C229.945 311.231 252.925 346.075 254.489 348.158C254.97 351.17 247.872 356.266 244.506 356.266C241.14 353.704 201.827 298.851 200.884 296.416C199.94 293.981 196.774 235.707 216.022 241.224Z" fill="#2D3F41"/>
<path d="M174.98 231.864C174.533 234.197 181.176 287.523 182.001 294.685C182.825 301.847 195.554 359.544 196.68 360.984C197.807 362.425 206.375 362.114 207.854 361.394C209.333 360.673 204.964 301.233 204.964 296.924C204.964 292.614 216.439 252.867 214.964 241.355C213.489 229.843 174.98 231.864 174.98 231.864Z" fill="#384C4F"/>
<path d="M207.552 167.222H198.58V182.258H207.552V167.222Z" fill="#E49D75"/>
<path d="M152.153 65.4201H9.8912C4.6287 65.4201 0.36261 69.5281 0.36261 74.5956V211.586C0.36261 216.653 4.6287 220.761 9.8912 220.761H152.153C157.415 220.761 161.681 216.653 161.681 211.586V74.5956C161.681 69.5281 157.415 65.4201 152.153 65.4201Z" fill="#DCE0E3"/>
<path d="M91.1052 136.201C93.3186 134.245 94.867 131.691 95.5476 128.873C96.2282 126.056 96.0093 123.106 94.9195 120.41C93.8296 117.715 91.9198 115.399 89.44 113.766C86.9602 112.133 84.0261 111.259 81.022 111.259C78.0179 111.259 75.0838 112.133 72.604 113.766C70.1242 115.399 68.2144 117.715 67.1245 120.41C66.0347 123.106 65.8158 126.056 66.4964 128.873C67.177 131.691 68.7254 134.245 70.9388 136.201L59.4509 181.059H102.58L91.1052 136.201Z" fill="#A4A4A4"/>
<path d="M29.2332 65.4201C29.3568 52.2721 34.8676 39.703 44.5665 30.4478C54.2654 21.1925 67.3674 16 81.022 16C94.6765 16 107.779 21.1925 117.477 30.4478C127.176 39.703 132.687 52.2721 132.811 65.4201" stroke="#DCE0E3" stroke-width="32" stroke-linecap="round" stroke-linejoin="round"/>
<path d="M201.908 169.694C208.715 169.694 214.233 162.548 214.233 153.733C214.233 144.918 208.715 137.772 201.908 137.772C195.101 137.772 189.583 144.918 189.583 153.733C189.583 162.548 195.101 169.694 201.908 169.694Z" fill="#E49D75"/>
<path d="M200.229 179.16C185.286 179.16 171.967 219.079 174.525 232.327C175.282 236.239 211.041 244.134 216.507 243.029C218.449 240.483 226.375 179.16 200.229 179.16Z" fill="#B4BFC8"/>
<path d="M196.396 201.395C203.085 196.722 192.392 174.073 189.893 173.685C185.29 172.968 173.845 181.46 174.206 185.029C174.397 186.912 189.583 206.155 196.396 201.395Z" fill="#B4BFC8"/>
<path d="M176.327 183.347C174.525 181.264 170.02 171.069 169.527 168.651C169.034 166.232 167.827 129.878 167.827 127.725C167.827 125.572 164.852 120.142 164.852 116.9C164.852 113.659 168.277 109.264 170.02 109.206C171.881 110.479 174.465 117.944 174.584 119.847C175.235 115.754 178.312 114.813 179.153 114.813C179.995 114.813 179.884 121.136 176.399 125.392C176.523 128.519 180.649 159.487 181.317 161.28C181.984 163.073 189.583 174.822 189.566 175.862C189.549 176.901 176.327 183.347 176.327 183.347Z" fill="#E49D75"/>
<path d="M268.222 125.484L117.425 105.644L116.837 109.792L267.634 129.632L268.222 125.484Z" fill="#A4A4A4"/>
<path d="M126.057 111.004L116.835 109.791L115.131 121.805L124.353 123.019L126.057 111.004Z" fill="#A4A4A4"/>
<path d="M134.939 112.174L129.979 111.522L128.274 123.536L133.235 124.189L134.939 112.174Z" fill="#A4A4A4"/>
<path d="M217.017 145.696C216.664 143.756 216.345 129.698 216.889 127.713C217.433 125.728 218.904 124.279 219.563 121.316C219.788 120.297 219.431 116.769 218.713 116.622C217.166 116.303 217.076 117.973 216.872 119.2C216.082 123.387 214.471 122.622 213.727 122.524C212.984 122.425 210.429 122 209.592 121.979C208.755 121.959 210.888 123.616 210.238 126.264C209.728 128.347 207.331 142.225 206.838 144.496C208.627 144.566 217.017 145.696 217.017 145.696Z" fill="#E49D75"/>
<path d="M143.405 113.284L138.444 112.631L136.74 124.646L141.7 125.299L143.405 113.284Z" fill="#A4A4A4"/>
<path d="M143.402 113.287L116.835 109.792L116.231 114.05L142.798 117.545L143.402 113.287Z" fill="#A4A4A4"/>
<path d="M272.246 117.08C270.036 116.791 267.787 117.138 265.782 118.079C263.778 119.02 262.107 120.512 260.983 122.366C259.859 124.221 259.33 126.355 259.465 128.498C259.6 130.642 260.391 132.699 261.739 134.41C263.088 136.12 264.932 137.407 267.04 138.109C269.148 138.81 271.424 138.894 273.582 138.35C275.739 137.806 277.681 136.658 279.161 135.052C280.641 133.446 281.594 131.453 281.898 129.325C282.1 127.911 282.011 126.472 281.635 125.091C281.26 123.71 280.605 122.413 279.709 121.276C278.812 120.139 277.692 119.183 276.411 118.463C275.131 117.743 273.715 117.273 272.246 117.08V117.08ZM278.328 128.842C278.122 130.292 277.475 131.65 276.467 132.745C275.46 133.84 274.138 134.622 272.669 134.994C271.2 135.365 269.649 135.309 268.213 134.831C266.777 134.354 265.521 133.478 264.602 132.313C263.684 131.148 263.145 129.746 263.053 128.286C262.961 126.826 263.322 125.373 264.088 124.11C264.854 122.847 265.993 121.831 267.358 121.191C268.724 120.551 270.257 120.315 271.762 120.514C273.779 120.78 275.604 121.807 276.836 123.369C278.067 124.931 278.604 126.9 278.328 128.842V128.842Z" fill="#A4A4A4"/>
<path d="M176.446 125.36C175.885 123.244 174.793 121.394 174.614 119.802V119.851C174.495 117.944 171.911 110.479 170.05 109.21C168.307 109.268 164.882 113.663 164.882 116.904C164.882 119.282 166.497 122.839 167.355 125.413H176.429L176.446 125.36Z" fill="#E49D75"/>
<path d="M190.803 143.735C190.803 149.256 194.849 152.661 201.262 154.56C201.262 162.115 202.473 162.446 202.473 167.046C202.473 176.959 200.718 172.002 200.718 189.118C200.718 199.439 205.206 205.054 213.468 205.054C223.46 205.054 229.193 194.876 229.193 189.392C229.193 182.434 222.045 170.345 221.543 160.306C220.85 146.801 216.49 135.501 205.555 135.501C196.213 135.501 190.803 138.849 190.803 143.735Z" fill="#323030"/>
<path d="M201.895 159.045C203.726 159.045 205.21 157.616 205.21 155.853C205.21 154.09 203.726 152.661 201.895 152.661C200.064 152.661 198.58 154.09 198.58 155.853C198.58 157.616 200.064 159.045 201.895 159.045Z" fill="#E49D75"/>
<path fill-rule="evenodd" clip-rule="evenodd" d="M258.051 353.798L263.364 360.78L252.25 375.922L241.761 375.988L241.897 370.868L246.108 369.075L249.853 360.178L258.051 353.798Z" fill="black"/>
<path d="M207.505 365.805V376H176.386V371.486L196.918 365.805H207.505Z" fill="black"/>
</svg>
