<svg width="312" height="374" viewBox="0 0 312 374" fill="none" xmlns="http://www.w3.org/2000/svg">
<path d="M297.05 44.4125H261.43V103.006H297.05V44.4125Z" fill="#DFDFDF"/>
<path d="M297.05 44.4125H261.43V48.4641H297.05V44.4125Z" fill="#F3F3F3"/>
<path d="M123.5 67.6317H36.66V100.98H123.5V67.6317Z" fill="#F3F3F3"/>
<path d="M50.83 94.9025C55.8558 94.9025 59.93 90.0187 59.93 83.9942C59.93 77.9696 55.8558 73.0858 50.83 73.0858C45.8042 73.0858 41.73 77.9696 41.73 83.9942C41.73 90.0187 45.8042 94.9025 50.83 94.9025Z" fill="#DFDFDF"/>
<path d="M117.13 73.7092H66.17V77.4492H117.13V73.7092Z" fill="#DFDFDF"/>
<path d="M83.33 82.4358H66.17V86.1758H83.33V82.4358Z" fill="#DFDFDF"/>
<path d="M56.9114 79.6059L49.4 88.6099L46.293 84.8824" stroke="#F3F3F3" stroke-width="6" stroke-miterlimit="10"/>
<path d="M123.5 108.46H36.66V141.808H123.5V108.46Z" fill="#F3F3F3"/>
<path d="M50.83 135.731C55.8558 135.731 59.93 130.847 59.93 124.823C59.93 118.798 55.8558 113.914 50.83 113.914C45.8042 113.914 41.73 118.798 41.73 124.823C41.73 130.847 45.8042 135.731 50.83 135.731Z" fill="#DFDFDF"/>
<path d="M117.13 114.537H66.17V118.277H117.13V114.537Z" fill="#DFDFDF"/>
<path d="M83.33 123.264H66.17V127.004H83.33V123.264Z" fill="#DFDFDF"/>
<path d="M56.9114 120.434L49.4 129.438L46.293 125.711" stroke="#F3F3F3" stroke-width="6" stroke-miterlimit="10"/>
<path d="M123.5 149.288H36.66V182.637H123.5V149.288Z" fill="#F3F3F3"/>
<path d="M50.83 176.559C55.8558 176.559 59.93 171.675 59.93 165.651C59.93 159.626 55.8558 154.742 50.83 154.742C45.8042 154.742 41.73 159.626 41.73 165.651C41.73 171.675 45.8042 176.559 50.83 176.559Z" fill="#DFDFDF"/>
<path d="M117.13 155.366H66.17V159.106H117.13V155.366Z" fill="#DFDFDF"/>
<path d="M83.33 164.093H66.17V167.833H83.33V164.093Z" fill="#DFDFDF"/>
<path d="M56.9114 161.263L49.4 170.263L46.293 166.539" stroke="#F3F3F3" stroke-width="6" stroke-miterlimit="10"/>
<path d="M290.03 54.0742H254.41V112.667H290.03V54.0742Z" fill="#F3F3F3"/>
<path d="M290.03 54.0742H254.41V58.1258H290.03V54.0742Z" fill="#DFDFDF"/>
<path d="M286.39 65.2941H258.31V68.0991H286.39V65.2941Z" fill="#DFDFDF"/>
<path d="M286.39 70.9041H258.31V73.7091H286.39V70.9041Z" fill="#DFDFDF"/>
<path d="M286.39 76.5142H258.31V79.3192H286.39V76.5142Z" fill="#DFDFDF"/>
<path d="M195.65 133.861C195.65 130.744 200.33 125.757 208.39 125.757C218.27 125.757 231.79 151.002 246.87 151.002C257.27 151.002 271.57 140.717 271.57 122.017" stroke="#DFDFDF" stroke-width="11" stroke-miterlimit="10" stroke-dasharray="22 22"/>
<path d="M118.04 164.248C117.52 166.43 109.2 219.102 123.5 268.033C125.84 268.657 125.58 260.865 125.58 260.865L122.98 193.857L124.28 168.612L118.04 164.248Z" fill="#DE8E68"/>
<path d="M157.04 360.287H131.82C131.82 360.287 123.24 254.008 123.24 251.827C124.8 253.697 124.54 254.32 131.04 256.502C134.94 261.488 162.5 344.392 162.5 344.392L157.04 360.287Z" fill="#384C4F"/>
<path d="M144.511 124.667C156.66 128.834 147.066 173.321 142.568 177.048C138.07 180.776 116.984 170.285 115.284 165.567C113.584 160.848 127.309 118.767 144.511 124.667Z" fill="#B4BFC8"/>
<path d="M155.48 112.823C194.22 112.823 195 246.217 189.54 251.827C184.08 257.437 128.18 262.735 123.24 251.827C118.3 240.918 113.36 112.823 155.48 112.823Z" fill="#B4BFC8"/>
<path d="M169.52 121.862C179.66 112.823 203.32 148.977 203.06 155.522C202.8 162.067 183.04 175.78 178.88 174.533C174.72 173.287 155.163 134.659 169.52 121.862Z" fill="#B4BFC8"/>
<path d="M199.42 156.768C209.04 175.78 211.64 201.025 211.64 205.388C211.64 217.232 206.7 223.153 203.58 223.153C191.1 223.153 150.02 185.13 147.16 182.013C144.3 178.897 152.62 169.547 153.92 171.105C155.22 172.663 170.04 183.883 191.62 195.103C188.5 190.428 179.4 176.403 179.14 172.04C178.88 167.677 199.42 156.768 199.42 156.768Z" fill="#DE8E68"/>
<path d="M141.563 147.666L125.32 150.604L129.521 183.98L145.764 181.042L141.563 147.666Z" fill="#333333"/>
<path d="M153.394 178.196C155.333 174.171 153.124 168.292 148.461 165.064C143.797 161.837 138.445 162.483 136.507 166.508C134.568 170.533 136.777 176.412 141.441 179.64C146.104 182.867 151.456 182.221 153.394 178.196Z" fill="#DE8E68"/>
<path d="M162.24 118.745C162.24 122.797 148.72 123.108 148.72 118.745V94.1233H162.24V118.745Z" fill="#D37C59"/>
<path d="M151.97 108.772C159.365 108.772 165.36 96.004 165.36 80.2542C165.36 64.5044 159.365 51.7367 151.97 51.7367C144.575 51.7367 138.58 64.5044 138.58 80.2542C138.58 96.004 144.575 108.772 151.97 108.772Z" fill="#DE8E68"/>
<path d="M164.45 88.5133C166.389 88.5133 167.96 86.6296 167.96 84.3058C167.96 81.9821 166.389 80.0983 164.45 80.0983C162.511 80.0983 160.94 81.9821 160.94 84.3058C160.94 86.6296 162.511 88.5133 164.45 88.5133Z" fill="#DE8E68"/>
<path d="M210.08 47.685C199.94 47.685 191.62 56.4117 180.7 56.4117C172.9 56.4117 165.36 45.1917 154.44 45.1917C140.4 45.1917 135.98 54.23 135.98 60.4633C135.98 65.45 138.58 71.06 139.36 71.06C139.36 69.5017 140.92 63.8917 141.44 63.2683C141.96 65.45 152.88 80.7217 162.5 80.7217V80.8089C163.028 80.3851 163.643 80.1412 164.278 80.1035C164.913 80.0657 165.545 80.2354 166.106 80.5945C166.666 80.9536 167.135 81.4885 167.462 82.1421C167.789 82.7958 167.962 83.5437 167.962 84.3058C167.962 85.068 167.789 85.8158 167.462 86.4695C167.135 87.1232 166.666 87.6581 166.106 88.0171C165.545 88.3762 164.913 88.5459 164.278 88.5082C163.643 88.4704 163.028 88.2266 162.5 87.8027V96.9283H165.1C168.48 96.9283 170.04 95.37 175.24 95.37C184.34 95.37 197.08 108.772 212.68 108.772C229.58 108.772 236.6 93.5 236.6 76.3583C236.6 53.6067 218.66 47.685 210.08 47.685Z" fill="#323030"/>
<path d="M189.54 251.827V360.287H157.04L131.009 256.43C140.14 258.372 174.72 259.93 189.54 251.827Z" fill="#2D3F41"/>
</svg>
